<svg width="74" height="74" viewBox="0 0 74 74" fill="none" xmlns="http://www.w3.org/2000/svg">
<path d="M3.23746 43.4749H12.4875V49.9499H3.23746V43.4749Z" fill="#F0CED3"/>
<path d="M6.47496 41.1624H15.725V47.6374H6.47496V41.1624Z" fill="#F0CED3"/>
<path d="M2.77496 24.5124H12.025V30.9874H2.77496V24.5124Z" fill="#F0CED3"/>
<path d="M6.47496 28.2124H15.725V34.6874H6.47496V28.2124Z" fill="#F0CED3"/>
<path d="M62.9 23.5874H72.15V30.0624H62.9V23.5874Z" fill="#F0CED3"/>
<path d="M60.125 24.5124H69.375V30.9874H60.125V24.5124Z" fill="#F0CED3"/>
<path d="M60.125 42.5499H69.375V49.0249H60.125V42.5499Z" fill="#F0CED3"/>
<path d="M61.975 43.4749H71.225V49.9499H61.975V43.4749Z" fill="#F0CED3"/>
<rect x="1.84998" y="18.5" width="70.3" height="10.175" fill="#F0CED3"/>
<rect x="1.84998" y="45.325" width="70.3" height="10.175" fill="#F0CED3"/>
<rect x="8.32495" y="25.8999" width="58.275" height="10.175" fill="#F0CED3"/>
<rect x="8.32495" y="35.1499" width="58.275" height="10.175" fill="#F0CED3"/>
<path d="M0.238714 16.8886C0.119359 17.3064 0.0596816 20.5886 0.119359 24.1693L0.298391 30.6741L2.3871 31.0918C8.71291 32.4047 8.71291 41.5951 2.3871 42.908L0.298391 43.3257V50.4273V57.5886H37H73.7016V50.4273V43.3257L71.6129 42.908C65.2871 41.5951 65.2871 32.4047 71.6129 31.0918L73.7016 30.6741V23.5725V16.4112L37.1194 16.2322C7.28065 16.1128 0.537101 16.2322 0.238714 16.8886ZM71.6129 23.4531V28.4064L69.5242 29.1822C62.6613 31.6289 62.6613 42.3709 69.5242 44.8177L71.6129 45.5935V50.5467V55.4999H37H2.3871V50.5467V45.6531L4.7742 44.6386C11.1597 41.9531 11.1597 32.0467 4.7742 29.3612L2.3871 28.3467V23.3935V18.4999H37H71.6129V23.4531Z" fill="#F0CED3"/>
</svg>
