<svg width="204" height="30" viewBox="0 0 204 30" fill="none" xmlns="http://www.w3.org/2000/svg">
<g clip-path="url(#clip0)">
<path d="M38.9145 6.34641C43.467 6.34641 44.6823 9.68359 44.6823 14.7183C44.6823 20.1195 43.9492 23.4374 38.6638 23.4374H37.0241V12.3263C37.0241 12.3263 36.5226 12.5192 35.886 12.5192C35.3459 12.5192 34.69 12.3842 34.2078 11.9791V23.4374H32.2402V23.8618H39.2232C45.2995 23.8618 47.9809 20.5439 47.9809 14.4675C47.9809 8.33329 44.4894 5.76771 39.011 5.76771C35.886 5.76771 33.8798 7.23376 33.8798 9.14347C33.8798 10.4166 34.825 11.2461 35.8281 11.2461C36.6962 11.2461 37.6414 10.6867 37.6414 9.49069C37.6414 8.54548 36.9662 7.96678 36.2139 7.96678C35.5002 7.96678 35.0951 8.37187 34.9408 8.79625C34.8829 8.93128 34.8057 9.00844 34.6707 9.00844C34.4971 9.00844 34.4199 8.91199 34.4199 8.77696C34.4199 8.44903 34.7286 7.77388 35.288 7.33021C36.1753 6.63577 37.3906 6.34641 38.9145 6.34641ZM56.835 10.8989C52.8998 10.8989 50.8165 13.7152 50.8165 17.6504C50.8165 21.547 52.649 24.4019 56.5456 24.4019C59.3041 24.4019 61.0209 22.5693 61.5996 20.0231L61.0981 19.9845C60.6158 21.9521 59.3813 23.6496 57.1629 23.6496C54.4623 23.6496 53.4399 21.4312 53.4399 18.7306V17.959H54.7131C58.031 17.959 61.5996 17.689 61.5996 14.3518C61.5996 11.9019 59.3041 10.8989 56.835 10.8989ZM53.4399 17.4575V16.7052C53.4399 14.2168 54.1151 11.3618 56.6035 11.3618C58.301 11.3618 58.9762 12.6543 58.9762 14.3518C58.9762 17.0331 57.0472 17.4575 54.3852 17.4575H53.4399ZM67.8882 4.88037C66.615 5.15043 65.4191 5.22759 64.1266 5.22759H63.5672V5.63268H65.4769V23.4567H63.7022V23.8618H69.6629V23.4567H67.8882V4.88037ZM75.7971 11.0918C74.524 11.3618 73.3473 11.439 72.0355 11.439H71.4761V11.8441H73.3858V23.4567H71.6112V23.8618H77.5718V23.4567H75.7971V11.0918ZM72.9422 7.36879C72.9422 8.25613 73.6173 8.93128 74.5047 8.93128C75.392 8.93128 76.0865 8.25613 76.0865 7.36879C76.0865 6.48145 75.392 5.76771 74.5047 5.76771C73.6173 5.76771 72.9422 6.48145 72.9422 7.36879ZM86.2716 11.439C88.625 11.439 89.5123 12.8665 89.5123 13.9081C89.5123 14.0431 89.4159 14.1396 89.2809 14.1396C89.1458 14.1396 89.0494 14.0624 89.0301 13.9081C88.9529 13.5223 88.5478 13.1944 87.9498 13.1944C87.1397 13.1944 86.6574 13.8695 86.6574 14.6604C86.6574 15.4706 87.3518 16.0879 88.162 16.0879C89.2423 16.0879 90.0332 15.2584 90.0332 14.1782C90.0332 11.8441 88.162 10.8989 85.8472 10.8989C81.8542 10.8989 79.983 13.6573 79.983 17.6504C79.983 21.4891 81.8542 24.4019 85.6736 24.4019C88.2392 24.4019 89.8596 22.5693 90.3804 20.0231L89.8981 19.9845C89.4545 21.9521 88.3356 23.6496 86.3295 23.6496C83.2431 23.6496 82.6065 20.5632 82.6065 17.4961C82.6065 14.4675 83.2431 11.439 86.2716 11.439ZM96.1867 11.0918C94.9135 11.3618 93.7369 11.439 92.4251 11.439H91.8657V11.8441H93.7754V23.4567H92.0007V23.8618H97.9614V23.4567H96.1867V11.0918ZM93.3318 7.36879C93.3318 8.25613 94.0069 8.93128 94.8943 8.93128C95.7816 8.93128 96.476 8.25613 96.476 7.36879C96.476 6.48145 95.7816 5.76771 94.8943 5.76771C94.0069 5.76771 93.3318 6.48145 93.3318 7.36879ZM106.237 24.4019C110.076 24.4019 112.178 21.4891 112.178 17.6504C112.178 13.8117 110.076 10.8989 106.237 10.8989C102.398 10.8989 100.295 13.8117 100.295 17.6504C100.295 21.4891 102.398 24.4019 106.237 24.4019ZM109.555 17.6504C109.555 20.6596 109.227 23.9389 106.237 23.9389C103.228 23.9389 102.919 20.6596 102.919 17.6504C102.919 14.6604 103.228 11.3618 106.237 11.3618C109.227 11.3618 109.555 14.6604 109.555 17.6504ZM124.562 11.8441V16.7438C124.562 19.8109 123.945 23.6496 120.878 23.6496C118.872 23.6496 118.872 20.6789 118.872 18.4991V11.0918C117.599 11.3618 116.422 11.439 115.11 11.439H114.551V11.8441H116.461V18.8657C116.461 22.1643 117.059 24.4019 120.357 24.4019C122.17 24.4019 123.752 23.2445 124.35 21.5084H124.524V23.8618H128.748V23.4567H126.974V11.0918C125.7 11.3618 124.524 11.439 123.212 11.439H122.653V11.8441H124.562ZM136.541 10.8989C134.13 10.8989 131.893 12.2299 131.893 14.6218C131.893 18.9428 139.474 18.0941 139.474 21.3348C139.474 23.3795 137.622 23.8618 135.558 23.8618C132.915 23.8618 131.97 22.4922 131.97 21.6241C131.97 21.4698 132.105 21.3734 132.221 21.3734C132.356 21.3734 132.433 21.4698 132.452 21.6241C132.529 22.0099 132.934 22.3186 133.532 22.3186C134.342 22.3186 134.825 21.6434 134.825 20.8718C134.825 20.0616 134.13 19.4444 133.32 19.4444C132.24 19.4444 131.449 20.2738 131.449 21.3541C131.449 23.5724 133.667 24.4019 136.001 24.4019C138.856 24.4019 141.21 23.2638 141.21 20.4089C141.21 16.0879 133.609 16.9559 133.609 13.7152C133.609 12.0948 135.345 11.439 136.966 11.439C139.454 11.439 140.129 12.5964 140.129 13.4066C140.129 13.5802 139.994 13.6573 139.879 13.6573C139.744 13.6573 139.666 13.5802 139.647 13.4066C139.551 13.0401 139.146 12.7121 138.567 12.7121C137.757 12.7121 137.255 13.3873 137.255 14.1782C137.255 14.9884 137.969 15.6056 138.779 15.6056C139.859 15.6056 140.631 14.7569 140.631 13.6766C140.631 11.5547 138.663 10.8989 136.541 10.8989ZM157.626 6.30783C160.056 6.30783 161.676 7.58098 161.831 8.73838C161.869 8.87341 161.754 9.00844 161.599 9.00844C161.464 9.00844 161.387 8.93128 161.329 8.79625C161.156 8.37187 160.75 7.96678 160.056 7.96678C159.304 7.96678 158.629 8.54548 158.629 9.49069C158.629 10.6867 159.574 11.2461 160.442 11.2461C161.426 11.2461 162.371 10.4166 162.371 9.14347C162.371 7.23376 160.21 5.76771 157.355 5.76771C152.629 5.76771 149.948 10.2623 149.948 15.0076C149.948 19.888 152.379 24.4019 157.24 24.4019C160.866 24.4019 162.969 21.9521 163.22 18.3255L162.737 18.2677C162.487 21.4119 160.866 23.7653 157.741 23.7653C153.787 23.7653 153.247 19.1743 153.247 15.2198C153.247 10.9567 153.362 6.30783 157.626 6.30783ZM170.704 10.8989C168.544 10.8989 166.345 11.7862 166.345 13.9467C166.345 15.0269 167.135 15.8757 168.216 15.8757C169.026 15.8757 169.72 15.2584 169.72 14.4482C169.72 13.6573 169.238 12.9822 168.428 12.9822C167.83 12.9822 167.425 13.3101 167.348 13.6766C167.328 13.8502 167.232 13.9274 167.097 13.9274C167 13.9274 166.865 13.8502 166.865 13.6766C166.865 12.8665 167.676 11.439 170.26 11.439C172.903 11.439 173.578 13.0979 173.578 15.7407V17.0524C169.99 16.9752 165.38 17.3032 165.38 20.8911C165.38 23.2638 167.425 24.4019 169.798 24.4019C171.784 24.4019 173.308 23.3217 173.81 21.4119H173.964C173.964 22.8394 174.118 24.4019 175.565 24.4019C177.494 24.4019 178.092 22.1643 178.285 20.216L177.803 20.1581C177.61 21.9135 177.147 23.2638 176.472 23.2638C176.105 23.2638 175.99 22.7815 175.99 22.1643V17.3803C175.99 12.905 175.179 10.8989 170.704 10.8989ZM173.578 19.3479C173.578 21.547 172.633 23.6496 170.453 23.6496C168.775 23.6496 168.004 22.4536 168.004 20.7947C168.004 17.8433 170.666 17.4575 173.578 17.5539V19.3479ZM186.58 16.4158C188.162 15.8371 189.377 14.8726 189.377 13.1751C189.377 11.7669 188.528 10.8989 187.178 10.8989C186.117 10.8989 185.249 11.6512 185.249 12.7121C185.249 13.5416 185.866 14.2168 186.715 14.2168C187.486 14.2168 188.142 13.7152 188.142 12.9243C188.142 12.3263 187.814 11.9598 187.448 11.8827C187.274 11.8441 187.197 11.7669 187.197 11.6319C187.197 11.4776 187.313 11.3811 187.467 11.3811C188.258 11.3811 188.933 12.0563 188.933 13.1751C188.933 15.6056 186.001 16.3001 183.571 16.628V4.88037C182.317 5.15043 181.121 5.22759 179.828 5.22759H179.25V5.63268H181.179V23.4567H179.385V23.8618H185.365V23.4567H183.571V17.091C184.439 16.9559 185.152 16.7823 185.307 16.7823H185.461C187.043 16.7823 187.583 18.2291 187.583 20.0809V21.547C187.583 23.6496 188.682 24.209 189.898 24.209C190.226 24.209 190.766 24.1897 191.364 24.0354L191.306 23.7075C191.113 23.7653 190.959 23.7846 190.824 23.7846C190.149 23.7846 189.975 23.1866 189.975 21.8749V20.8332C189.975 18.1133 189.57 16.6087 186.58 16.4737V16.4158ZM199.099 10.8989C195.164 10.8989 193.081 13.7152 193.081 17.6504C193.081 21.547 194.913 24.4019 198.81 24.4019C201.568 24.4019 203.285 22.5693 203.864 20.0231L203.381 19.9845C202.88 21.9521 201.645 23.6496 199.427 23.6496C196.726 23.6496 195.704 21.4312 195.704 18.7306V17.959H196.977C200.295 17.959 203.864 17.689 203.864 14.3518C203.864 11.9019 201.568 10.8989 199.099 10.8989ZM195.704 17.4575V16.7052C195.704 14.2168 196.379 11.3618 198.868 11.3618C200.565 11.3618 201.24 12.6543 201.24 14.3518C201.24 17.0331 199.331 17.4575 196.649 17.4575H195.704Z" fill="#873E4A"/>
<path d="M8.51654 20.872C9.0066 20.872 9.40387 20.2762 9.40387 19.5412C9.40387 18.8062 9.0066 18.2104 8.51654 18.2104C8.02648 18.2104 7.62921 18.8062 7.62921 19.5412C7.62921 20.2762 8.02648 20.872 8.51654 20.872Z" fill="#873E4A"/>
<path d="M17.3898 20.872C17.8799 20.872 18.2772 20.2762 18.2772 19.5412C18.2772 18.8062 17.8799 18.2104 17.3898 18.2104C16.8998 18.2104 16.5025 18.8062 16.5025 19.5412C16.5025 20.2762 16.8998 20.872 17.3898 20.872Z" fill="#873E4A"/>
<path d="M17.3898 21.7598H8.51654C8.3798 21.7599 8.24494 21.7916 8.12249 21.8524C8.00003 21.9133 7.89329 22.0016 7.8106 22.1105C7.72791 22.2194 7.6715 22.3459 7.64578 22.4802C7.62006 22.6145 7.62573 22.7529 7.66234 22.8847C7.69972 23.0195 8.63201 26.1964 12.9537 26.1964C17.2758 26.1964 18.2076 23.0195 18.2454 22.8847C18.2821 22.7528 18.2877 22.6143 18.2619 22.4798C18.2361 22.3454 18.1796 22.2188 18.0968 22.1099C18.0139 22.001 17.907 21.9127 17.7843 21.852C17.6617 21.7912 17.5267 21.7597 17.3898 21.7598Z" fill="#873E4A"/>
<path d="M23.6021 15.1056H23.1582V9.33769C23.1572 8.51439 22.8297 7.7251 22.2476 7.14294C21.6654 6.56078 20.8761 6.23328 20.0528 6.23228H19.6089V4.01372C19.6089 1.8122 17.8177 0.0205078 15.6157 0.0205078H10.2917C8.08975 0.0205078 6.29853 1.81173 6.29853 4.01372V6.23228H5.85558C5.03228 6.23328 4.24299 6.56078 3.66082 7.14294C3.07866 7.7251 2.75117 8.51439 2.75016 9.33769V15.1056H2.30626C1.71806 15.1062 1.15412 15.3401 0.738199 15.756C0.322275 16.172 0.0883339 16.7359 0.0877075 17.3241V28.8589C0.0877075 29.1045 0.285996 29.3028 0.531608 29.3028H25.3768C25.4351 29.3029 25.4929 29.2914 25.5467 29.2691C25.6006 29.2469 25.6496 29.2142 25.6908 29.1729C25.732 29.1317 25.7647 29.0827 25.787 29.0289C25.8093 28.975 25.8208 28.9172 25.8207 28.8589V17.3236C25.8201 16.7355 25.5861 16.1716 25.1702 15.7557C24.7542 15.3399 24.1903 15.1061 23.6021 15.1056ZM10.2922 0.908309H15.6162C17.0321 0.908309 18.2157 1.86662 18.5881 3.16425C18.3577 3.33131 18.1509 3.51398 17.9635 3.70138C17.5404 4.12446 17.2067 4.45809 16.5035 4.45809C15.8003 4.45809 15.4657 4.12351 15.0426 3.70043C14.5892 3.24754 14.0251 2.68344 12.9542 2.68344C11.8833 2.68344 11.3192 3.24754 10.8658 3.70043C10.4427 4.12351 10.1086 4.45809 9.40489 4.45809C8.70118 4.45809 8.36754 4.12446 7.94494 3.70043C7.75706 3.51303 7.55073 3.33131 7.32026 3.16425C7.6927 1.86662 8.87628 0.908309 10.2922 0.908309ZM7.18633 4.20349C7.22987 4.24561 7.27294 4.28394 7.31695 4.32843C7.77031 4.78037 8.33347 5.34448 9.40442 5.34448C10.4754 5.34448 11.0395 4.78037 11.4928 4.32748C11.9159 3.9044 12.25 3.56982 12.9537 3.56982C13.6574 3.56982 13.9915 3.9044 14.4146 4.32748C14.868 4.78037 15.4321 5.34448 16.503 5.34448C17.574 5.34448 18.1371 4.78132 18.5905 4.32843C18.6345 4.28394 18.6781 4.24561 18.7211 4.20349V6.2318H7.18633V4.20349ZM5.85558 7.11913H20.0528C20.641 7.11976 21.205 7.3537 21.6209 7.76962C22.0368 8.18555 22.2708 8.74948 22.2714 9.33769V11.0655C21.9972 11.2446 21.7431 11.4526 21.5132 11.6859C21.0902 12.1099 20.7565 12.4436 20.0533 12.4436C19.3501 12.4436 19.0155 12.109 18.5924 11.6859C18.139 11.233 17.5749 10.6689 16.504 10.6689C15.433 10.6689 14.8689 11.233 14.4156 11.6859C13.9925 12.109 13.6584 12.4436 12.9547 12.4436C12.251 12.4436 11.9169 12.109 11.4938 11.6859C11.0404 11.233 10.4763 10.6689 9.40536 10.6689C8.33442 10.6689 7.77031 11.233 7.31695 11.6859C6.89387 12.109 6.55976 12.4436 5.85605 12.4436C5.15329 12.4436 4.8187 12.1099 4.3961 11.6869C4.16594 11.4535 3.91183 11.2451 3.63797 11.065V9.33769C3.63822 8.74953 3.87191 8.18552 4.28771 7.76954C4.70351 7.35356 5.26742 7.11963 5.85558 7.11913ZM3.63702 12.1899C3.68056 12.2325 3.72362 12.2699 3.76763 12.3144C4.221 12.7673 4.7851 13.3304 5.8551 13.3304C6.92605 13.3304 7.49015 12.7663 7.94352 12.3134C8.3666 11.8904 8.7007 11.5558 9.40442 11.5558C10.1081 11.5558 10.4422 11.8904 10.8653 12.3134C11.3187 12.7663 11.8828 13.3304 12.9537 13.3304C14.0247 13.3304 14.5888 12.7663 15.0421 12.3134C15.4652 11.8904 15.7993 11.5558 16.503 11.5558C17.2067 11.5558 17.5409 11.8904 17.9639 12.3134C18.4173 12.7663 18.9814 13.3304 20.0524 13.3304C21.1233 13.3304 21.6865 12.7663 22.1398 12.3144C22.1838 12.2699 22.2274 12.2325 22.2704 12.1899V15.1051H3.63702V12.1899ZM24.9329 28.415H0.975509V17.3236C0.975884 16.9708 1.11621 16.6326 1.36569 16.3831C1.61518 16.1336 1.95344 15.9933 2.30626 15.9929H23.6021C23.955 15.9933 24.2932 16.1336 24.5427 16.3831C24.7922 16.6326 24.9325 16.9708 24.9329 17.3236V28.415Z" fill="#873E4A"/>
</g>
<defs>
<clipPath id="clip0">
<rect width="204" height="29.2823" fill="white"/>
</clipPath>
</defs>
</svg>
